HIERARCHY
ROOT Hips
{
	OFFSET 0.000000 0.000000 0.000000
	CHANNELS 6 Xposition Yposition Zposition Xrotation Yrotation Zrotation
	JOINT LeftUpLeg_virtual
	{
		OFFSET 0.000000 0.000000 0.000000
		CHANNELS 3 Xrotation Yrotation Zrotation
		JOINT LeftUpLeg
		{
			OFFSET 11.394100 -6.187798 -0.413800
			CHANNELS 3 Xrotation Yrotation Zrotation
			JOINT LeftLeg
			{
				OFFSET 0.430247 -32.302673 3.732800
				CHANNELS 3 Xrotation Yrotation Zrotation
				JOINT LeftFoot
				{
					OFFSET -0.430247 -48.264931 -6.423300
					CHANNELS 3 Xrotation Yrotation Zrotation
					JOINT LeftToeBase
					{
						OFFSET 4.230900 -16.068199 23.438400
						CHANNELS 3 Xrotation Yrotation Zrotation
						JOINT LeftToe_End
						{
							OFFSET 4.510700 0.695400 19.974600
							CHANNELS 3 Xrotation Yrotation Zrotation
							End Site
							{
								OFFSET 0 0 0
							}
						}
					}
				}
			}
		}
	}
	JOINT RightUpLeg_virtual
	{
		OFFSET 0.000000 0.000000 0.000000
		CHANNELS 3 Xrotation Yrotation Zrotation
		JOINT RightUpLeg
		{
			OFFSET -11.333700 -6.187798 -0.413800
			CHANNELS 3 Xrotation Yrotation Zrotation
			JOINT RightLeg
			{
				OFFSET -0.430392 -32.302628 3.733000
				CHANNELS 3 Xrotation Yrotation Zrotation
				JOINT RightFoot
				{
					OFFSET 0.430392 -48.264973 -6.423500
					CHANNELS 3 Xrotation Yrotation Zrotation
					JOINT RightToeBase
					{
						OFFSET -4.230900 -16.068199 23.438400
						CHANNELS 3 Xrotation Yrotation Zrotation
						JOINT RightToe_End
						{
							OFFSET -4.510700 0.695400 19.974600
							CHANNELS 3 Xrotation Yrotation Zrotation
							End Site
							{
								OFFSET 0 0 0
							}
						}
					}
				}
			}
		}
	}
	JOINT Spine_virtual
	{
		OFFSET 0.000000 0.000000 0.000000
		CHANNELS 3 Xrotation Yrotation Zrotation
		JOINT Spine
		{
			OFFSET -0.002400 12.777504 0.315300
			CHANNELS 3 Xrotation Yrotation Zrotation
			JOINT Spine1
			{
				OFFSET -0.002067 5.816869 0.032633
				CHANNELS 3 Xrotation Yrotation Zrotation
				JOINT Spine1_split
				{
					OFFSET -0.002067 5.816869 0.032633
					CHANNELS 3 Xrotation Yrotation Zrotation
					JOINT Spine2
					{
						OFFSET -0.002067 5.816869 0.032633
						CHANNELS 3 Xrotation Yrotation Zrotation
						JOINT Neck_virtual
						{
							OFFSET 0.000000 0.000000 0.000000
							CHANNELS 3 Xrotation Yrotation Zrotation
							JOINT Neck
							{
								OFFSET -0.003700 21.199493 -0.826900
								CHANNELS 3 Xrotation Yrotation Zrotation
								JOINT Head
								{
									OFFSET 0.000000 20.442200 4.834800
									CHANNELS 3 Xrotation Yrotation Zrotation
									JOINT HeadTop_End
									{
										OFFSET 0.000000 34.668396 4.968400
										CHANNELS 3 Xrotation Yrotation Zrotation
										End Site
										{
											OFFSET 0 0 0
										}
									}
								}
							}
						}
						JOINT LeftShoulder_virtual
						{
							OFFSET 0.000000 0.000000 0.000000
							CHANNELS 3 Xrotation Yrotation Zrotation
							JOINT LeftShoulder
							{
								OFFSET 3.288150 8.794197 -1.372250
								CHANNELS 3 Xrotation Yrotation Zrotation
								JOINT LeftShoulder_split
								{
									OFFSET 3.288150 8.794197 -1.372250
									CHANNELS 3 Xrotation Yrotation Zrotation
									JOINT LeftArm
									{
										OFFSET 11.953299 -2.279007 -0.146200
										CHANNELS 3 Xrotation Yrotation Zrotation
										JOINT LeftForeArm
										{
											OFFSET 18.448900 0.000000 0.000000
											CHANNELS 3 Xrotation Yrotation Zrotation
											JOINT LeftHand
											{
												OFFSET 29.527798 0.000000 0.000000
												CHANNELS 3 Xrotation Yrotation Zrotation
												End Site
												{
													OFFSET 0 0 0
												}
											}
										}
									}
								}
							}
						}
						JOINT RightShoulder_virtual
						{
							OFFSET 0.000000 0.000000 0.000000
							CHANNELS 3 Xrotation Yrotation Zrotation
							JOINT RightShoulder
							{
								OFFSET -3.249400 8.794197 -1.372250
								CHANNELS 3 Xrotation Yrotation Zrotation
								JOINT RightShoulder_split
								{
									OFFSET -3.249400 8.794197 -1.372250
									CHANNELS 3 Xrotation Yrotation Zrotation
									JOINT RightArm
									{
										OFFSET -11.953299 -2.279007 -0.146200
										CHANNELS 3 Xrotation Yrotation Zrotation
										JOINT RightForeArm
										{
											OFFSET -18.448900 0.000000 0.000000
											CHANNELS 3 Xrotation Yrotation Zrotation
											JOINT RightHand
											{
												OFFSET -29.527802 0.000000 0.000000
												CHANNELS 3 Xrotation Yrotation Zrotation
												End Site
												{
													OFFSET 0 0 0
												}
											}
										}
									}
								}
							}
						}
					}
				}
			}
		}
	}
}
MOTION
Frames: 5
Frame Time: 0.03333333
-0.523929 91.775589 -6.225098 0.000000 0.000000 0.000000 -3.489752 7.260640 7.157310 -71.370778 6.637832 6.791773 43.387814 12.455404 0.002818 17.961055 -8.578373 -5.138726 5.062671 -0.066490 7.512219 0.000000 0.000000 0.000000 -3.797519 7.996780 7.377491 -18.485367 -9.597011 -3.860564 47.183217 7.293761 -2.092677 -29.495663 -5.005937 -4.169390 7.002436 5.200486 -10.943625 0.000000 0.000000 0.000000 -5.348763 11.292407 6.466526 12.577292 -0.505251 -1.576009 3.738609 -1.609600 -1.076345 0.091734 -0.381378 0.066816 0.000000 0.000000 0.000000 4.259336 1.008578 -1.109403 9.637068 7.482885 2.395267 -5.584614 -7.932782 -1.511223 0.000000 0.000000 0.000000 2.533059 -0.625335 -2.036202 -0.134089 -0.075228 -7.885123 -1.934731 -2.737105 -1.286551 13.117154 -21.264923 -57.807572 3.837667 -26.903676 2.170468 0.000000 0.000000 0.000000 4.204602 -0.222497 -1.406006 -0.176325 3.238829 14.923379 3.627046 2.039447 1.138407 11.442865 11.247667 49.076460 2.124076 40.256858 0.639615 0.000000 0.000000 0.000000 
-0.688951 91.952118 -6.563042 0.000000 0.000000 0.000000 -3.219000 6.817428 7.562389 -71.205193 7.659848 6.437301 36.925051 11.078976 1.668504 19.871923 -10.578653 -4.563041 5.586352 -0.168240 10.245682 0.000000 0.000000 0.000000 -3.498110 7.933214 7.682360 -19.011061 -9.386141 -3.940921 47.999704 6.659993 -1.883701 -29.025685 -4.941948 -5.762246 6.514281 5.881517 -11.210969 0.000000 0.000000 0.000000 -5.219854 11.537875 7.076059 13.022864 -0.544389 -1.502118 3.831594 -1.702502 -1.102624 0.099590 -0.367557 0.096876 0.000000 0.000000 0.000000 4.280855 0.891185 -1.132232 10.048763 7.660499 1.791698 -5.937024 -7.904707 -1.732928 0.000000 0.000000 0.000000 2.545253 -0.702673 -2.140434 -0.090315 0.241973 -8.380023 -2.272139 -2.694456 -1.035299 14.049701 -22.267113 -58.055761 3.083573 -26.350370 1.879409 0.000000 0.000000 0.000000 4.107359 -0.355691 -1.480542 -0.025219 4.218103 15.258484 4.401184 2.194561 1.142613 10.627962 11.242523 48.224677 2.237656 41.449447 0.505372 0.000000 0.000000 0.000000 
-0.992793 91.923050 -7.261475 0.000000 0.000000 0.000000 -3.234543 6.652892 7.854037 -70.900738 8.928559 6.160118 33.912794 10.536687 2.589570 20.928459 -11.310429 -3.390904 7.206764 0.089186 9.914337 0.000000 0.000000 0.000000 -3.131595 8.340372 7.889563 -20.250490 -9.061210 -4.295996 49.176720 6.362164 -1.772952 -27.820474 -4.546567 -6.165811 4.945696 6.575430 -11.917136 0.000000 0.000000 0.000000 -4.875441 11.986845 7.411899 13.504892 -0.675634 -1.452419 3.938588 -1.811937 -1.032568 0.117888 -0.373782 0.082319 0.000000 0.000000 0.000000 4.241293 0.779297 -1.127928 10.314337 7.783686 1.413957 -6.705975 -7.853459 -2.025576 0.000000 0.000000 0.000000 2.506891 -0.770329 -2.157824 -0.058648 0.335637 -8.759197 -2.681899 -2.540000 -0.950699 14.616475 -23.058973 -58.077495 2.225449 -25.821189 1.489495 0.000000 0.000000 0.000000 3.978946 -0.472837 -1.489337 0.105701 4.967975 15.629887 5.183107 2.322402 0.916957 9.764817 11.606019 47.545415 2.534796 42.276214 0.182396 0.000000 0.000000 0.000000 
-1.340898 92.008240 -8.142651 0.000000 0.000000 0.000000 -3.079345 7.080502 8.026132 -70.257744 9.843722 5.451310 34.163609 10.369259 2.963507 20.982034 -10.954906 -2.274480 9.775614 0.466388 7.168145 0.000000 0.000000 0.000000 -2.623195 9.179452 8.020309 -21.808412 -8.596777 -4.617322 49.337004 6.315329 -1.786398 -26.324775 -3.770176 -5.854375 3.607291 7.055860 -12.892020 0.000000 0.000000 0.000000 -3.993785 12.717115 7.500765 13.874240 -0.939268 -1.396090 4.026061 -1.947415 -0.920594 0.092065 -0.404987 0.054350 0.000000 0.000000 0.000000 4.177308 0.674262 -1.093251 10.420438 7.920816 1.179955 -8.043995 -7.630241 -2.465345 0.000000 0.000000 0.000000 2.434945 -0.856452 -2.106456 -0.054150 0.101421 -8.939003 -2.986666 -2.319225 -0.972578 14.977889 -23.771990 -57.840569 1.441674 -25.510470 1.106836 0.000000 0.000000 0.000000 3.862140 -0.574438 -1.435410 0.211743 5.430799 15.970200 5.676783 2.327079 0.543480 9.037766 11.947224 47.157467 2.959428 42.736473 -0.291823 0.000000 0.000000 0.000000 
-1.576880 92.318039 -9.025318 0.000000 0.000000 0.000000 -2.501527 8.293254 8.000980 -68.451268 10.214702 4.049676 35.658495 10.545360 2.848655 18.669258 -9.754563 -0.202688 10.031238 0.474209 4.787950 0.000000 0.000000 0.000000 -1.836832 9.938688 8.066874 -23.352786 -8.251377 -4.738888 47.950114 6.111669 -1.799881 -24.810283 -2.870332 -5.831849 3.760965 7.241299 -14.081419 0.000000 0.000000 0.000000 -2.696504 13.570000 7.325542 14.011374 -1.318256 -1.296619 4.031424 -2.127405 -0.811279 0.043313 -0.491843 -0.000555 0.000000 0.000000 0.000000 4.157874 0.556474 -1.023099 10.427871 8.079484 0.987783 -10.159715 -7.116294 -3.194434 0.000000 0.000000 0.000000 2.359545 -0.972724 -2.006655 -0.067371 -0.439911 -8.941185 -2.978045 -2.211418 -1.027455 15.376313 -24.482572 -57.404393 0.917471 -25.746582 0.887391 0.000000 0.000000 0.000000 3.800901 -0.695108 -1.323041 0.307240 5.592808 16.189589 5.788447 2.301406 0.125183 8.622925 11.780738 47.184125 3.450529 43.036185 -0.836849 0.000000 0.000000 0.000000 
